<?xml version="1.0" encoding="UTF-8" standalone="no"?>
<!-- Created with Inkscape (http://www.inkscape.org/) -->

<svg
   xmlns:dc="http://purl.org/dc/elements/1.1/"
   xmlns:cc="http://creativecommons.org/ns#"
   xmlns:rdf="http://www.w3.org/1999/02/22-rdf-syntax-ns#"
   xmlns:svg="http://www.w3.org/2000/svg"
   xmlns="http://www.w3.org/2000/svg"
   xmlns:sodipodi="http://sodipodi.sourceforge.net/DTD/sodipodi-0.dtd"
   xmlns:inkscape="http://www.inkscape.org/namespaces/inkscape"
   width="100.54272"
   height="53.943142"
   viewBox="0 0 26.601929 14.272456"
   version="1.1"
   id="svg8"
   sodipodi:docname="digilang-logo.svg"
   inkscape:version="0.92.4 (unknown)">
  <defs
     id="defs2" />
  <sodipodi:namedview
     id="base"
     pagecolor="#000000"
     bordercolor="#666666"
     borderopacity="1.0"
     inkscape:pageopacity="0"
     inkscape:pageshadow="2"
     inkscape:zoom="11.313708"
     inkscape:cx="54.444243"
     inkscape:cy="26.760222"
     inkscape:document-units="px"
     inkscape:current-layer="layer1"
     showgrid="false"
     showborder="true"
     inkscape:window-width="1920"
     inkscape:window-height="1053"
     inkscape:window-x="0"
     inkscape:window-y="27"
     inkscape:window-maximized="1"
     fit-margin-top="0"
     units="px"
     inkscape:pagecheckerboard="true"
     borderlayer="true"
     inkscape:showpageshadow="false"
     scale-x="0.26458"
     fit-margin-left="0"
     fit-margin-right="0"
     fit-margin-bottom="0"
     viewbox-width="26.6" />
  <metadata
     id="metadata5">
    <rdf:RDF>
      <cc:Work
         rdf:about="">
        <dc:format>image/svg+xml</dc:format>
        <dc:type
           rdf:resource="http://purl.org/dc/dcmitype/StillImage" />
        <dc:title></dc:title>
      </cc:Work>
    </rdf:RDF>
  </metadata>
  <g
     inkscape:label="layer"
     inkscape:groupmode="layer"
     id="layer1"
     transform="translate(-44.429873,-23.863366)">
    <path
       inkscape:connector-curvature="0"
       id="path4667"
       d="m 54.817714,32.226809 c -0.528443,0.497588 -1.076214,0.977427 -1.359527,1.190929 -0.272835,0.205604 -0.586996,0.379551 -0.622099,0.344448 -0.02774,-0.02774 0.466334,-0.981652 0.767821,-1.482429 0.870635,-1.446141 2.190201,-3.260018 2.766263,-3.802511 0.171194,-0.161219 0.246903,-0.206338 0.346218,-0.206338 h 0.127107 l -0.09528,-0.102075 c -0.104113,-0.111533 -0.309154,-0.225768 -0.47815,-0.266381 -0.339197,-0.08151 -0.837764,0.441273 -2.000596,2.097771 -0.836675,1.191871 -1.922491,2.634111 -2.138271,3.194629 -0.03744,0.09726 0.0031,-0.0048 0,0 0.08032,-2.620837 -3.11379,-1.516763 -2.198986,-5.704286 l 0.0106,-0.828202 0.0106,-0.828203 h 1.401769 c 1.129171,0 1.448522,0.01182 1.642179,0.0603 l 0.240409,0.0603 c 4.206424,-1.981403 5.373671,0.143324 9.015008,0.01697 0.0012,0.05064 -0.0023,-0.137734 -0.0023,-0.137734 0.0695,-0.0046 0.121427,-0.0062 0.710528,1.94e-4 l 0.76736,0.0083 c -0.02131,0.264025 -0.01654,0.85339 -0.01654,0.85339 0.08894,4.347419 0.185041,2.514636 0.261974,5.298808 -2.377193,1.915654 -6.927088,-1.854122 -9.156043,0.232152 z"
       style="display:inline;fill:#6875b2;stroke-width:0.03930244"
       sodipodi:nodetypes="cccssscccscccccssccssccccc"
       inkscape:label="lila" />
    <path
       inkscape:connector-curvature="0"
       id="path4669"
       d="m 61.408535,38.083163 c -0.214605,-0.09922 -0.27519,-0.204438 -0.274448,-0.476649 6.55e-4,-0.208819 0.02533,-0.295244 0.164833,-0.575476 0.462566,-0.929155 1.642196,-1.950564 3.260382,-2.823076 0.277398,-0.14957 0.535071,-0.295304 0.572608,-0.323852 0.06716,-0.05107 0.910277,-1.52323 0.886174,-1.547335 -0.0068,-0.0068 -0.224327,0.172765 -0.483392,0.399034 -0.851947,0.744087 -1.711333,1.386206 -1.969109,1.47128 -0.114116,0.03766 -0.148193,0.03232 -0.248389,-0.03903 -0.06387,-0.04549 -0.165726,-0.184203 -0.226345,-0.308276 l -0.110216,-0.225586 -2.623499,1.166011 -2.623497,1.166013 -2.576025,-1.509514 c -1.629304,-0.954748 -1.990356,-0.505704 -2.020449,-0.469443 -0.02185,0.02632 -0.1295,0.09673 -0.239203,0.156444 -0.227121,0.123615 -0.321054,0.116019 -0.507718,-0.04106 -0.163165,-0.137295 -0.192452,-0.44959 -0.177191,-0.61547 0.554722,-1.157511 1.0723,-2.127068 1.576671,-2.824512 0.81991,-1.133772 1.557692,-2.203806 1.974928,-2.555993 0.563799,-0.481197 0.838244,-0.100811 1.078847,0.164235 l 0.09922,0.08682 -0.303941,-0.07107 c -0.12965,-0.03032 -0.858665,0.86957 -1.490415,1.673823 0,0 -0.07493,0.389555 0.06024,0.442986 1.11059,0.438997 6.359882,-0.33395 7.269319,-0.398338 6.809628,0.855141 3.712032,1.029223 5.441121,1.273205 -1.078684,0.64775 -1.172228,0.592208 -1.172228,0.592208 -0.01715,0.01481 0.01591,0.05955 0.131844,0.203526 0.0639,0.111344 0.06442,0.126809 0.0064,0.192843 -0.0874,0.09945 -0.636101,1.112997 -0.614337,1.134762 0.0098,0.0098 0.147563,-0.0265 0.306313,-0.08049 0.556522,-0.189286 0.524297,-0.09938 -0.04841,0.135071 l -0.403848,0.165322 -0.216149,0.376782 c -0.307133,0.535383 -1.075552,1.69326 -1.415579,2.133035 -0.658109,0.851169 -1.539424,1.604285 -2.181259,1.863962 -0.325379,0.131647 -0.724527,0.170445 -0.90328,0.08781 z m 0.668141,-0.590873 c 0.473331,-0.222873 1.144849,-0.843494 1.746151,-1.613795 0.354071,-0.453589 1.156122,-1.633175 1.12894,-1.660352 -0.02564,-0.02564 -0.7533,0.402848 -1.165437,0.686298 -0.977582,0.672347 -1.755276,1.478093 -2.118316,2.194727 -0.06705,0.132367 -0.121917,0.274745 -0.121917,0.316384 0,0.190108 0.221708,0.222174 0.530584,0.07674 z m 2.126157,-4.017181 c 0.367032,-0.230289 1.154773,-0.804877 1.233484,-0.899721 0.02526,-0.03045 0.972594,-0.801058 -0.745547,0.230596 -0.778188,0.347189 -0.741195,0.404368 -0.891096,0.760928 -0.07741,0.184132 -0.01332,0.169551 0.403159,-0.0918 z"
       style="display:inline;fill:#69adc0;stroke-width:0.03930244"
       sodipodi:nodetypes="cccccccccccccsccccscccscsccccccccccccccsscccssscccscc"
       inkscape:label="turkoosi"
       sodipodi:insensitive="true" />
    <path
       inkscape:connector-curvature="0"
       id="path4665"
       d="m 55.493515,34.950511 c -1.199707,-0.537098 -2.256848,-1.017331 -2.278466,-1.026759 -0.02161,-0.0094 0.151218,-0.103205 0.313344,-0.248822 0.446953,-0.401438 1.650703,-1.639412 1.650703,-1.697634 0,-0.02819 -0.01114,-0.05126 -0.0249,-0.05126 -0.01364,0 -0.210602,0.17244 -0.437588,0.383199 -1.070791,0.994244 -1.857521,1.585614 -1.856159,1.395236 4.36e-4,-0.06343 0.446199,-0.901297 0.732108,-1.376152 0.389767,-0.647349 0.719869,-1.157206 1.182873,-1.826998 l 0.373565,-0.540408 h 0.683185 0.683185 v -0.804317 c 0,-0.777131 0.0027,-0.805812 0.08261,-0.848535 0.04545,-0.02433 0.116181,-0.03543 0.157211,-0.02472 0.115774,0.03028 0.08897,-0.0296 -0.08261,-0.184623 L 56.51537,27.956686 V 26.874867 25.79304 l -0.697619,0.01074 -0.697619,0.01074 -0.01965,1.532795 -0.01965,1.532795 -0.396772,0.530583 c -0.9438,1.262093 -2.127359,3.168132 -2.398773,3.863053 -0.05757,0.147388 -0.0893,0.184243 -0.146136,0.169713 -0.18248,-0.04664 -7.643132,-3.38743 -7.618835,-3.411619 0.0151,-0.01504 1.238959,-0.590759 2.719678,-1.279378 l 2.692217,-1.252037 0.01033,1.230252 0.01033,1.230251 1.306256,-5.9e-4 c 1.013536,-4.35e-4 1.361468,-0.01366 1.552647,-0.05867 0.707843,-0.166887 1.29384,-0.689411 1.532824,-1.366794 0.188947,-0.535551 0.129431,-1.187866 -0.157783,-1.729201 -0.138036,-0.260171 -0.524565,-0.641343 -0.777017,-0.766246 l -0.170329,-0.08427 0.173887,-0.07578 c 0.09563,-0.04168 1.106727,-0.509923 2.246864,-1.040541 l 2.072977,-0.964758 2.259791,1.048826 2.259791,1.048824 2.2e-4,1.994599 2.17e-4,1.9946 h 0.707445 0.707444 v -1.655289 c 0,-1.558038 0.0041,-1.654087 0.06878,-1.634875 0.101395,0.03009 7.177714,3.328834 7.210142,3.361126 0.01519,0.01514 -0.920067,0.448413 -2.078344,0.962856 l -2.105961,0.93535 -0.08584,-0.08063 c -0.150028,-0.14094 -0.249772,-0.102795 -0.681388,0.260631 -0.375868,0.316485 -0.455344,0.363126 -1.136925,0.667217 -0.403048,0.179818 -0.856758,0.442776 -0.866767,0.432765 -0.03331,-0.0333 0.540614,-0.732219 0.82978,-1.019959 0.434001,-0.431853 1.039704,-0.848392 1.476386,-1.015303 0.130872,-0.05002 0.320091,-0.08592 0.468496,-0.08885 0.221153,-0.0043 0.257859,0.0061 0.328763,0.09332 0.06671,0.08214 0.0764,0.135987 0.05902,0.328179 -0.01956,0.216132 -0.01714,0.224706 0.0401,0.142959 0.0927,-0.13234 0.109386,-0.397408 0.03417,-0.542846 -0.321213,-0.621159 -1.90309,-0.249453 -2.981411,0.700562 -0.125558,0.110623 -0.208973,0.156787 -0.252858,0.139953 -0.04592,-0.01763 -0.136714,0.04405 -0.30391,0.206435 -0.853067,0.828527 -1.878141,1.622448 -2.029558,1.571889 -0.105486,-0.03521 0.68777,-1.302686 1.256959,-2.008373 0.165085,-0.204676 0.27871,-0.382527 0.27871,-0.436255 0,-0.116182 -0.206125,-0.402199 -0.314683,-0.436654 -0.239762,-0.07609 -1.456246,0.80663 -2.671152,1.938292 l -0.450805,0.419939 0.232702,-0.334072 c 0.70441,-1.011258 1.176886,-1.558164 1.314922,-1.522067 0.170944,0.0447 0.03404,-0.25525 -0.200824,-0.439993 -0.198765,-0.15635 -0.284059,-0.146125 -0.505012,0.06056 -0.567469,0.5308 -1.551461,2.003021 -1.765969,2.642191 l -0.0837,0.249401 0.08566,0.17694 c 0.08328,0.172053 0.267908,0.326024 0.391276,0.326321 0.04549,1.18e-4 0.05723,-0.03218 0.04642,-0.127583 -0.0217,-0.191673 0.162591,-0.441985 0.774584,-1.052127 0.670241,-0.668215 1.41232,-1.261703 2.065779,-1.652136 0.18277,-0.10921 0.178403,-0.10039 -0.149497,0.301436 -0.27902,0.341927 -0.642911,0.894207 -0.811411,1.231484 -0.284698,0.569857 -0.292787,0.72287 -0.0523,0.989072 0.104222,0.115366 0.168072,0.152793 0.260636,0.152793 0.277556,0 0.798408,-0.424253 1.653859,-1.230841 0.491576,-0.463498 0.55523,-0.525686 0.36088,-0.224718 -0.143176,0.221718 -0.387696,0.745968 -0.387696,0.868364 0,0.05035 -5.165423,2.357022 -5.256789,2.347829 -0.02161,-0.0022 -1.040446,-0.4786 -2.240153,-1.015697 z m -0.392898,-0.826778 c 0.319644,-0.170368 1.175651,-0.82961 1.793238,-1.381039 0.05967,-0.05329 0.03003,0.03031 -0.103257,0.291221 -0.240934,0.471605 -0.304251,0.726402 -0.220678,0.888019 0.08019,0.155061 0.284055,0.323158 0.390625,0.322081 0.265232,-0.0027 0.837591,-0.425906 1.665517,-1.231555 0.656335,-0.638677 1.018553,-1.035878 0.979891,-1.074537 -0.01345,-0.01345 -0.120829,0.0623 -0.238475,0.168462 -1.130285,1.019924 -1.572889,1.380896 -1.900714,1.550151 -0.09279,0.04791 -0.179587,0.07625 -0.192855,0.063 -0.08291,-0.08291 0.695003,-1.260483 1.020692,-1.545078 l 0.143003,-0.124946 -0.08817,-0.166716 c -0.121032,-0.22887 -0.270508,-0.337446 -0.388559,-0.282238 -0.04926,0.02304 -0.299301,0.23031 -0.555641,0.460606 -0.523973,0.470726 -1.029846,0.862913 -1.63736,1.269397 -0.507245,0.339392 -0.667568,0.424798 -0.66692,0.355277 0.0016,-0.171226 0.580519,-0.989658 1.017683,-1.438719 0.866825,-0.890424 2.075644,-1.436467 2.341078,-1.057506 0.06883,0.09827 0.07942,0.35173 0.01941,0.463898 -0.02862,0.05348 -0.02801,0.07602 0.002,0.07602 0.05868,0 0.156588,-0.246178 0.156588,-0.393713 0,-0.185516 -0.102441,-0.343241 -0.285753,-0.439992 -0.137542,-0.0726 -0.227257,-0.08738 -0.519948,-0.08571 -0.791938,0.0045 -1.774015,0.513485 -2.604593,1.349779 -0.495534,0.498945 -0.873671,1.122 -0.873671,1.439535 0,0.205048 0.313405,0.645451 0.459324,0.645451 0.03315,0 0.162537,-0.05452 0.287548,-0.121142 z m 4.907532,-4.180615 c 0.330007,-0.08783 0.617559,-0.246261 0.86827,-0.478376 0.385508,-0.356911 0.60468,-0.784619 0.657076,-1.282264 l 0.02378,-0.225989 H 60.47086 59.384445 v 0.235813 0.235816 l 0.363547,0.0011 0.363549,0.0011 -0.14367,0.133617 c -0.347754,0.32343 -0.898549,0.282362 -1.21797,-0.09081 -0.305274,-0.356643 -0.308303,-0.869467 -0.0072,-1.221218 0.177343,-0.207185 0.408028,-0.291941 0.737501,-0.270961 0.303647,0.01933 0.543575,0.161444 0.670658,0.39723 l 0.07861,0.14584 0.636344,1.06e-4 c 0.381371,6.4e-5 0.646064,-0.01563 0.660601,-0.03914 0.03634,-0.0588 -0.0821,-0.481759 -0.200082,-0.714609 -0.221298,-0.436709 -0.727434,-0.810862 -1.291808,-0.954946 -0.300476,-0.0767 -0.881734,-0.0767 -1.18221,0 -0.805338,0.205599 -1.403131,0.818794 -1.5701,1.610546 -0.07854,0.37241 -0.07392,0.618366 0.01836,0.979203 0.105785,0.413608 0.247664,0.663414 0.550568,0.969383 0.266867,0.269567 0.601822,0.46545 0.967683,0.565904 0.25937,0.07123 0.926255,0.07275 1.189331,0.0027 z m -8.641391,-2.040277 v -0.968216 h 0.476895 c 0.579074,0 0.749655,0.04596 0.963683,0.259677 0.210054,0.209741 0.282612,0.499227 0.215659,0.860409 -0.05615,0.302978 -0.204061,0.510109 -0.471589,0.660467 -0.195001,0.109603 -0.246639,0.119741 -0.697619,0.13712 l -0.487029,0.01877 z"
       style="display:inline;fill:#272b51;stroke-width:0.03930244"
       sodipodi:nodetypes="cccsscccscccsccccccccccssccscccccssscsscccccccsscsccscccccccccscccsscccscccsccccsscccsssscccccsccsccccccccccccccssccssscccccccccccccscscccccscssscccccscssscc"
       inkscape:label="tumma" />
  </g>
</svg>
