<?xml version="1.0" encoding="UTF-8" standalone="no"?>
<!-- Created with Inkscape (http://www.inkscape.org/) -->

<svg
   xmlns:dc="http://purl.org/dc/elements/1.1/"
   xmlns:cc="http://creativecommons.org/ns#"
   xmlns:rdf="http://www.w3.org/1999/02/22-rdf-syntax-ns#"
   xmlns:svg="http://www.w3.org/2000/svg"
   xmlns="http://www.w3.org/2000/svg"
   xmlns:sodipodi="http://sodipodi.sourceforge.net/DTD/sodipodi-0.dtd"
   xmlns:inkscape="http://www.inkscape.org/namespaces/inkscape"
   version="1.1"
   id="svg3838"
   xml:space="preserve"
   width="495.03467"
   height="200.31599"
   viewBox="0 0 495.03467 200.31599"
   sodipodi:docname="UTU_log-FI-RGB.svg"
   inkscape:version="0.92.4 (unknown)"><metadata
     id="metadata3844"><rdf:RDF><cc:Work
         rdf:about=""><dc:format>image/svg+xml</dc:format><dc:type
           rdf:resource="http://purl.org/dc/dcmitype/StillImage" /><dc:title></dc:title></cc:Work></rdf:RDF></metadata><defs
     id="defs3842"><clipPath
       clipPathUnits="userSpaceOnUse"
       id="clipPath3854"><path
         d="M 0,150.237 H 371.276 V 0 H 0 Z"
         id="path3852"
         inkscape:connector-curvature="0" /></clipPath></defs><sodipodi:namedview
     pagecolor="#ffffff"
     bordercolor="#666666"
     borderopacity="1"
     objecttolerance="10"
     gridtolerance="10"
     guidetolerance="10"
     inkscape:pageopacity="0"
     inkscape:pageshadow="2"
     inkscape:window-width="1366"
     inkscape:window-height="741"
     id="namedview3840"
     showgrid="false"
     inkscape:pagecheckerboard="true"
     inkscape:zoom="2.3462929"
     inkscape:cx="247.51733"
     inkscape:cy="100.158"
     inkscape:window-x="0"
     inkscape:window-y="27"
     inkscape:window-maximized="1"
     inkscape:current-layer="g3856" /><g
     id="g3846"
     inkscape:groupmode="layer"
     inkscape:label="UTU_log-FI-RGB"
     transform="matrix(1.3333333,0,0,-1.3333333,0,200.316)"><g
       id="g3848"><g
         id="g3850"
         clip-path="url(#clipPath3854)"><g
           id="g3856"
           transform="translate(77.2743,103.0469)"
           style="fill:#ffffff"><path
             d="m 0,0 c 0.17,0.803 0.298,1.707 0.298,2.667 0,0.963 -0.134,1.92 -0.4,2.858 C 0.789,4.684 1.332,3.739 1.516,2.707 L 1.517,2.7 C 1.372,1.894 0.77,0.993 0,0 m 9.941,-11.096 c -1.458,0.593 -3.145,0.907 -4.897,0.908 -0.693,-10e-4 -1.379,-0.052 -2.043,-0.148 -0.423,0.943 -0.638,1.864 -0.638,2.742 0,2.173 1.224,4.048 2.478,5.782 0.403,0.562 0.846,1.13 1.276,1.68 L 6.573,0.453 C 6.926,0.912 7.283,1.379 7.621,1.854 7.815,2.128 8.007,2.408 8.189,2.691 8.419,3.049 8.625,3.399 8.821,3.76 9.089,4.258 9.311,4.745 9.488,5.229 9.699,4.319 9.806,3.406 9.806,2.502 9.806,2.167 9.794,1.86 9.769,1.564 9.735,1.082 9.643,0.613 9.483,0.093 9.383,-0.243 9.259,-0.58 9.104,-0.939 8.906,-1.396 8.672,-1.834 8.489,-2.165 8.313,-2.489 8.127,-2.802 7.939,-3.109 7.761,-3.41 7.581,-3.696 7.407,-3.972 6.706,-5.088 6.101,-6.051 6.067,-7.027 6.066,-7.171 6.082,-7.303 6.113,-7.441 c 0.133,-0.506 0.313,-1.186 1.161,-1.288 0.481,0.015 0.807,0.244 1.021,0.677 0.135,0.286 0.202,0.608 0.202,0.961 0,0.456 -0.112,0.937 -0.324,1.399 0.306,0.54 0.708,1.177 1.098,1.795 0.224,0.368 0.473,0.787 0.716,1.242 0.901,-1.635 1.356,-3.162 1.354,-4.546 -0.005,-1.414 -0.464,-2.691 -1.4,-3.895 m -10.081,-0.12 c -0.591,0.714 -1.564,2.214 -1.562,4.348 0,0.291 0.017,0.578 0.052,0.855 0.184,1.583 1.233,3.01 2.384,4.454 l 0.234,0.298 C 2.011,0.065 3.09,1.437 3.108,3.082 3.109,3.276 3.097,3.437 3.07,3.591 2.985,4.214 2.942,4.767 2.942,5.271 2.955,6.974 3.403,8.319 4.342,9.429 4.335,9.306 4.332,9.185 4.334,9.067 4.345,6.754 5.452,4.568 6.458,2.89 5.973,2.192 5.444,1.513 4.887,0.796 4.447,0.23 4.003,-0.341 3.575,-0.929 2.178,-2.875 0.812,-4.992 0.811,-7.594 c 0,-0.987 0.216,-2.015 0.645,-3.064 -0.554,-0.149 -1.089,-0.336 -1.596,-0.558 m 22.584,-2.777 c -0.051,0.143 -0.113,0.285 -0.182,0.423 -0.258,0.507 -0.633,0.954 -1.093,1.305 l 6.299,16.248 c 0.136,0.019 0.273,0.028 0.412,0.028 1.006,0 1.997,-0.48 2.721,-1.317 0.594,-0.687 0.942,-1.543 0.985,-2.42 z M -21.5,0.274 c 0.043,0.874 0.392,1.729 0.987,2.42 0.725,0.836 1.717,1.316 2.725,1.316 0.138,0 0.274,-0.009 0.409,-0.028 l 6.3,-16.247 c -0.457,-0.348 -0.833,-0.795 -1.095,-1.304 -0.07,-0.139 -0.132,-0.281 -0.184,-0.426 z m 45.234,-17.449 c -0.338,0.257 -0.713,0.459 -1.108,0.597 l 10.051,15.691 c 1.039,-0.128 1.998,-0.779 2.591,-1.77 0.568,-0.95 0.722,-2.067 0.428,-3.077 z m -49.339,11.437 c -0.301,1.011 -0.147,2.129 0.425,3.081 0.595,0.991 1.554,1.642 2.592,1.77 l 10.053,-15.69 c -0.396,-0.138 -0.768,-0.338 -1.111,-0.598 z m -3.34,-6.506 c -0.478,0.988 -0.477,2.202 0.008,3.27 0.477,1.039 1.355,1.787 2.372,2.025 l 11.889,-11.367 c -0.035,-0.051 -0.069,-0.104 -0.099,-0.163 -0.274,-0.531 -0.413,-1.105 -0.413,-1.707 0,-0.008 0,-0.016 0,-0.023 z m 54.22,-7.94 c 0,0.596 -0.137,1.169 -0.41,1.705 -0.03,0.059 -0.064,0.111 -0.098,0.162 l 11.885,11.368 c 1.016,-0.233 1.895,-0.98 2.37,-2.025 0.485,-1.059 0.489,-2.274 0.014,-3.271 l -13.761,-7.968 z m 0.103,-3.391 c -0.179,0.457 -0.436,0.869 -0.757,1.216 l 15.238,8.821 c 0.83,-0.409 1.472,-1.187 1.775,-2.159 0.354,-1.135 0.19,-2.355 -0.436,-3.289 z m -56.488,4.589 c -0.625,0.935 -0.788,2.155 -0.434,3.289 0.301,0.971 0.943,1.75 1.774,2.159 l 15.239,-8.823 c -0.322,-0.343 -0.579,-0.755 -0.759,-1.214 z m 56.265,-7.841 c 0.309,0.533 0.48,1.124 0.501,1.743 l 15.702,4.558 c 0.745,-0.612 1.189,-1.628 1.197,-2.752 0.002,-1.038 -0.372,-2.031 -1.031,-2.742 z m -56.588,0.802 c -0.662,0.718 -1.038,1.712 -1.032,2.747 0.003,1.116 0.447,2.132 1.195,2.751 l 15.696,-4.59 c 0.028,-0.604 0.202,-1.19 0.504,-1.71 z m 56.885,-4.173 c -0.011,0.652 -0.19,1.274 -0.524,1.836 l 16.649,0.814 c 0.541,-0.694 0.781,-1.647 0.661,-2.641 -0.145,-1.171 -0.76,-2.216 -1.657,-2.821 z m -55.945,-2.812 c -0.895,0.604 -1.51,1.649 -1.657,2.822 -0.121,0.993 0.122,1.945 0.667,2.64 l 16.642,-0.814 c -0.334,-0.562 -0.513,-1.187 -0.525,-1.836 z m 2.058,-5.948 c -0.877,0.391 -1.574,1.258 -1.832,2.295 -0.192,0.779 -0.106,1.55 0.242,2.187 l 14.95,2.778 c 0.217,-0.52 0.55,-0.991 0.97,-1.375 z m 52.628,5.885 c 0.422,0.384 0.756,0.857 0.97,1.381 l 14.956,-2.79 c 0.344,-0.633 0.429,-1.402 0.237,-2.182 -0.257,-1.039 -0.958,-1.906 -1.839,-2.294 z M 24,-36.865 c 0.223,0.486 0.336,1.005 0.336,1.541 0,0.184 -0.016,0.371 -0.045,0.558 l 13.276,-5.449 c 0.262,-0.708 0.195,-1.553 -0.19,-2.34 -0.405,-0.829 -1.12,-1.482 -1.931,-1.771 z m -49.357,-7.462 c -0.81,0.29 -1.524,0.941 -1.931,1.767 -0.387,0.789 -0.455,1.636 -0.193,2.343 l 13.281,5.453 c -0.029,-0.186 -0.042,-0.372 -0.042,-0.56 -0.006,-0.536 0.107,-1.058 0.338,-1.555 z m 3.729,-4.477 c -0.906,0.145 -1.766,0.715 -2.322,1.547 -0.347,0.511 -0.542,1.075 -0.57,1.642 l 11.529,7.505 c 0.451,-0.414 0.985,-0.716 1.57,-0.89 -0.008,-0.031 -0.015,-0.063 -0.02,-0.093 z m 43.157,9.714 c -0.006,0.031 -0.013,0.061 -0.02,0.091 0.58,0.173 1.114,0.475 1.569,0.889 l 11.529,-7.501 c -0.024,-0.565 -0.218,-1.131 -0.565,-1.645 -0.562,-0.834 -1.423,-1.404 -2.325,-1.549 z m -38.777,-13.161 c -0.87,0.029 -1.738,0.413 -2.397,1.063 -0.401,0.387 -0.693,0.844 -0.853,1.333 l 9.166,8.737 c 0.145,-0.43 0.37,-0.836 0.66,-1.194 0.055,-0.066 0.114,-0.126 0.175,-0.182 z m 37.832,9.756 c 0.062,0.057 0.119,0.117 0.174,0.183 0.292,0.357 0.516,0.762 0.663,1.194 l 9.166,-8.737 c -0.158,-0.488 -0.449,-0.945 -0.849,-1.332 -0.661,-0.651 -1.531,-1.035 -2.404,-1.064 z m 2.223,-12.562 c -0.168,0 -0.333,0.013 -0.493,0.038 l -5.031,11.207 c -0.005,0.008 -0.009,0.017 -0.012,0.024 0.002,0.015 0.004,0.029 0.007,0.044 0.128,-0.013 0.25,-0.019 0.37,-0.019 0.564,0 1.138,0.131 1.677,0.379 l 6.729,-9.723 c -0.235,-0.469 -0.605,-0.894 -1.08,-1.237 -0.642,-0.46 -1.412,-0.713 -2.167,-0.713 m -35.528,-10e-4 c -0.752,0 -1.52,0.254 -2.164,0.714 -0.474,0.343 -0.844,0.767 -1.079,1.237 l 6.727,9.722 c 0.54,-0.248 1.113,-0.378 1.675,-0.378 0.128,0 0.251,0.005 0.371,0.016 0.003,-0.015 0.005,-0.031 0.007,-0.046 -0.005,-0.014 -5.037,-11.226 -5.037,-11.226 -0.162,-0.025 -0.33,-0.039 -0.5,-0.039 m 4.419,-2.09 c -0.439,0 -0.889,0.091 -1.303,0.265 -0.55,0.229 -1.005,0.591 -1.296,1.029 l 4.574,10.195 c 0.089,-0.107 0.18,-0.204 0.273,-0.293 0.317,-0.306 0.684,-0.553 1.093,-0.735 l -2.181,-10.225 c -0.343,-0.155 -0.741,-0.236 -1.16,-0.236 m 26.692,0 c -0.418,0 -0.817,0.081 -1.161,0.236 l -2.18,10.226 c 0.417,0.187 0.784,0.434 1.096,0.737 0.093,0.088 0.182,0.183 0.268,0.287 l 4.579,-10.192 c -0.292,-0.438 -0.746,-0.8 -1.294,-1.029 -0.417,-0.174 -0.87,-0.265 -1.308,-0.265 m -21.824,-0.686 c -0.09,0 -0.182,0.003 -0.275,0.011 -0.754,0.059 -1.421,0.367 -1.855,0.85 l 2.118,9.935 c 0.048,-0.003 0.094,-0.005 0.141,-0.005 0.644,0 1.3,0.164 1.898,0.467 l -0.489,-10.886 c -0.452,-0.241 -0.992,-0.372 -1.538,-0.372 m 16.955,0 c -0.553,0 -1.081,0.128 -1.537,0.372 l -0.491,10.884 c 0.598,-0.305 1.243,-0.465 1.898,-0.465 0.048,0 0.097,0.002 0.145,0.007 l 2.118,-9.943 c -0.433,-0.479 -1.102,-0.785 -1.858,-0.844 -0.093,-0.008 -0.184,-0.011 -0.275,-0.011 m -9.38,-18.776 -0.062,3.559 c -0.007,0.264 -0.155,0.51 -0.388,0.645 -0.885,0.49 -1.411,1.352 -1.411,2.307 0,0.931 0.496,1.782 1.328,2.277 0.239,0.141 0.383,0.396 0.376,0.665 -0.106,6.006 -0.225,10.774 -0.461,14.517 -0.131,2.106 -0.289,3.725 -0.482,4.952 -0.241,1.432 -0.45,2.26 -0.917,2.818 -0.541,0.608 -1.16,0.925 -1.796,0.925 -0.865,-0.016 -1.45,-0.533 -1.799,-0.841 -0.529,-0.484 -1.171,-0.736 -1.834,-0.736 -0.627,0 -1.219,0.235 -1.667,0.662 -0.46,0.437 -0.713,1.027 -0.713,1.663 0,0.099 0.007,0.198 0.018,0.298 0.035,0.269 -0.078,0.538 -0.295,0.696 -0.139,0.101 -0.309,0.157 -0.478,0.157 -0.093,0 -0.183,-0.016 -0.268,-0.048 -0.283,-0.097 -0.574,-0.147 -0.854,-0.147 -0.751,0.006 -1.444,0.327 -1.899,0.883 -0.342,0.417 -0.522,0.92 -0.522,1.453 0,0.396 0.103,0.786 0.3,1.129 0.131,0.24 0.128,0.52 -0.005,0.755 -0.133,0.231 -0.385,0.377 -0.657,0.38 -0.878,0.03 -1.676,0.508 -2.075,1.249 -0.181,0.331 -0.271,0.69 -0.271,1.068 0,0.604 0.25,1.202 0.687,1.639 0.186,0.19 0.263,0.45 0.208,0.697 -0.062,0.253 -0.234,0.448 -0.474,0.544 -0.943,0.364 -1.548,1.219 -1.544,2.179 10e-4,0.791 0.412,1.521 1.098,1.963 0.232,0.146 0.371,0.409 0.354,0.67 -0.007,0.256 -0.159,0.504 -0.399,0.633 -0.788,0.429 -1.259,1.194 -1.259,2.046 0.005,0.765 0.38,1.458 1.031,1.905 0.182,0.117 0.309,0.33 0.33,0.562 0.016,0.228 -0.07,0.448 -0.237,0.609 -0.472,0.444 -0.742,1.06 -0.742,1.691 0.004,0.364 0.087,0.707 0.247,1.017 0.41,0.802 1.251,1.299 2.196,1.299 0.286,0 0.549,0.158 0.686,0.411 0.139,0.267 0.112,0.581 -0.065,0.806 -0.294,0.404 -0.459,0.896 -0.459,1.378 0,0.354 0.082,0.697 0.247,1.019 0.351,0.686 1.029,1.164 1.814,1.278 0.205,0.03 0.393,0.143 0.515,0.31 0.121,0.165 0.169,0.365 0.136,0.563 -0.053,0.37 -0.374,0.644 -0.762,0.644 -0.041,0 -0.083,-0.003 -0.125,-0.011 -0.154,-0.022 -0.315,-0.056 -0.48,-0.102 l -6.323,16.32 c 0.222,1.114 0.98,2.142 2.041,2.762 0.667,0.388 1.399,0.595 2.115,0.595 0.63,0 1.22,-0.159 1.714,-0.46 l 0.162,-0.997 c 1.023,-6.307 3.418,-21.077 3.918,-23.371 0.075,-0.329 0.112,-0.618 0.112,-0.862 -0.003,-0.598 -0.22,-0.942 -0.696,-1.697 l -0.133,-0.213 c -0.683,-1.093 -1.414,-2.432 -2.146,-4.807 -0.407,-1.325 -0.615,-2.79 -0.615,-4.354 0.016,-5.181 2.139,-10.107 5.285,-12.258 1.256,-0.843 2.37,-1.253 3.409,-1.253 1.173,0 2.194,0.587 2.82,1.61 0.567,0.914 0.855,2.138 0.855,3.634 0,0.148 -10e-4,0.292 -0.007,0.446 -0.037,0.989 -0.05,2.358 -0.063,3.944 -0.015,1.598 -0.031,3.41 -0.077,5.143 -0.092,2.935 -0.225,5.925 -0.744,7.485 l 0.004,0.024 -0.054,0.14 c -0.025,0.064 -0.056,0.138 -0.092,0.212 v 0.047 l -0.036,0.038 c -0.589,1.097 -1.729,1.907 -3.481,2.471 -0.02,0.297 -0.03,0.594 -0.03,0.885 0,0.657 0.049,1.35 0.146,2.058 1.252,1.412 3.833,2.321 6.612,2.321 h 0.077 c 1.663,0 3.31,-0.339 4.641,-0.954 0.068,-0.045 0.146,-0.08 0.234,-0.104 0.715,-0.355 1.31,-0.788 1.728,-1.257 0.098,-0.692 0.15,-1.402 0.15,-2.06 0,-0.273 -0.012,-0.572 -0.034,-0.889 -1.752,-0.566 -2.891,-1.377 -3.478,-2.476 L 8.31,-19.481 8.3,-19.515 c -0.03,-0.051 -0.072,-0.148 -0.115,-0.255 -0.015,-0.038 -0.024,-0.08 -0.029,-0.125 -0.479,-1.38 -0.643,-3.896 -0.751,-7.496 -0.048,-1.738 -0.062,-3.553 -0.076,-5.154 -0.014,-1.582 -0.025,-2.949 -0.062,-3.939 -0.006,-0.146 -0.011,-0.293 -0.011,-0.434 0,-1.503 0.289,-2.728 0.859,-3.643 0.625,-1.021 1.649,-1.608 2.806,-1.608 1.046,0.004 2.188,0.425 3.414,1.252 3.152,2.153 5.277,7.079 5.288,12.259 0,1.56 -0.206,3.025 -0.613,4.353 -0.72,2.347 -1.457,3.698 -2.148,4.808 l -0.146,0.234 c -0.467,0.744 -0.679,1.084 -0.679,1.676 0,0.228 0.035,0.51 0.108,0.861 0.529,2.413 3.186,18.838 4.059,24.235 l 0.023,0.134 c 0.493,0.301 1.083,0.46 1.713,0.46 0.718,0 1.449,-0.207 2.114,-0.595 1.058,-0.614 1.819,-1.641 2.049,-2.761 l -6.328,-16.321 c -0.163,0.046 -0.323,0.081 -0.482,0.105 -0.039,0.006 -0.079,0.01 -0.119,0.01 -0.387,0 -0.71,-0.275 -0.768,-0.651 -0.03,-0.198 0.023,-0.405 0.145,-0.567 0.126,-0.166 0.309,-0.272 0.517,-0.298 0.776,-0.117 1.454,-0.596 1.807,-1.282 0.163,-0.32 0.246,-0.661 0.246,-1.014 0,-0.486 -0.165,-0.978 -0.467,-1.383 l -0.062,-0.084 v -0.051 c -0.065,-0.163 -0.092,-0.289 -0.084,-0.394 l -0.012,-0.017 0.051,-0.148 c 0.094,-0.272 0.336,-0.468 0.634,-0.514 l 0.092,-0.008 c 0.008,0 0.043,0.001 0.093,0.006 0.882,-0.018 1.705,-0.517 2.106,-1.304 0.168,-0.314 0.252,-0.654 0.252,-1.016 0,-0.633 -0.271,-1.247 -0.741,-1.684 -0.171,-0.16 -0.255,-0.385 -0.234,-0.618 0.013,-0.219 0.132,-0.426 0.326,-0.56 0.641,-0.441 1.016,-1.119 1.033,-1.864 l -0.001,-0.043 c 0,-0.839 -0.48,-1.621 -1.254,-2.043 -0.239,-0.121 -0.396,-0.369 -0.403,-0.643 -0.013,-0.264 0.123,-0.522 0.357,-0.666 0.679,-0.432 1.09,-1.162 1.095,-1.95 v -0.009 c 0,-0.964 -0.604,-1.819 -1.541,-2.177 -0.252,-0.104 -0.423,-0.303 -0.476,-0.549 -0.054,-0.244 0.021,-0.503 0.203,-0.691 0.446,-0.446 0.689,-1.028 0.689,-1.643 0,-0.38 -0.089,-0.739 -0.265,-1.069 -0.4,-0.733 -1.2,-1.212 -2.089,-1.248 -0.259,-0.003 -0.509,-0.148 -0.644,-0.376 -0.137,-0.237 -0.141,-0.518 -0.011,-0.754 0.2,-0.343 0.303,-0.733 0.303,-1.134 0,-0.532 -0.18,-1.033 -0.522,-1.451 -0.46,-0.558 -1.153,-0.878 -1.901,-0.878 -0.293,0 -0.584,0.047 -0.864,0.144 -0.074,0.028 -0.166,0.045 -0.26,0.045 -0.17,0 -0.338,-0.057 -0.473,-0.162 -0.212,-0.153 -0.329,-0.419 -0.3,-0.686 0.015,-0.108 0.02,-0.208 0.02,-0.304 0,-0.64 -0.252,-1.231 -0.71,-1.661 -0.451,-0.429 -1.043,-0.664 -1.67,-0.664 -0.663,0 -1.305,0.252 -1.806,0.711 -0.383,0.338 -0.967,0.854 -1.823,0.865 -0.64,10e-4 -1.259,-0.316 -1.793,-0.916 -0.473,-0.567 -0.688,-1.428 -0.92,-2.822 -0.622,-3.947 -0.807,-11.78 -0.944,-19.465 -0.003,-0.277 0.137,-0.527 0.375,-0.669 0.842,-0.495 1.343,-1.347 1.343,-2.281 0,-0.949 -0.541,-1.834 -1.412,-2.31 -0.244,-0.133 -0.397,-0.385 -0.4,-0.655 L 5.953,-76.61 Z"
             style="fill:#ffffff;fill-opacity:1;fill-rule:nonzero;stroke:none"
             id="path3858"
             inkscape:connector-curvature="0" /></g><g
           id="g3860"
           transform="translate(152.1728,101.0635)"
           style="fill:#ffffff"><path
             d="M 0,0 V -21.273 H -5.544 V 0 h -7.234 V 4.644 H 7.271 L 7.271,0 Z"
             style="fill:#ffffff;fill-opacity:1;fill-rule:nonzero;stroke:none"
             id="path3862"
             inkscape:connector-curvature="0" /></g><g
           id="g3864"
           transform="translate(184.4628,89.2207)"
           style="fill:#ffffff"><path
             d="m 0,0 c 0,-6.047 -3.996,-9.935 -10.835,-9.935 -6.803,0 -10.835,3.888 -10.835,9.935 v 16.486 h 5.544 V 0.54 c 0,-3.383 1.907,-5.399 5.291,-5.399 3.42,0 5.291,2.016 5.291,5.399 V 16.486 H 0 Z"
             style="fill:#ffffff;fill-opacity:1;fill-rule:nonzero;stroke:none"
             id="path3866"
             inkscape:connector-curvature="0" /></g><g
           id="g3868"
           transform="translate(195.6962,101.0635)"
           style="fill:#ffffff"><path
             d="m 0,0 v -7.739 h 3.959 c 2.448,0 4.14,1.224 4.14,3.851 C 8.099,-1.296 6.335,0 3.815,0 Z m 3.671,4.644 c 6.012,0 10.007,-2.988 10.007,-8.532 0,-3.779 -2.123,-6.262 -4.931,-7.379 l 5.435,-10.006 H 8.314 l -4.571,9.071 H 0 v -9.071 H -5.436 V 4.644 Z"
             style="fill:#ffffff;fill-opacity:1;fill-rule:nonzero;stroke:none"
             id="path3870"
             inkscape:connector-curvature="0" /></g><g
           id="g3872"
           transform="translate(235.6181,89.2207)"
           style="fill:#ffffff"><path
             d="m 0,0 c 0,-6.047 -3.996,-9.935 -10.835,-9.935 -6.803,0 -10.835,3.888 -10.835,9.935 v 16.486 h 5.544 V 0.54 c 0,-3.383 1.907,-5.399 5.291,-5.399 3.42,0 5.291,2.016 5.291,5.399 V 16.486 H 0 Z"
             style="fill:#ffffff;fill-opacity:1;fill-rule:nonzero;stroke:none"
             id="path3874"
             inkscape:connector-curvature="0" /></g><g
           id="g3876"
           transform="translate(262.7616,79.3945)"
           style="fill:#ffffff"><path
             d="m 0,0 -14.219,13.642 -1.691,1.476 V 0.396 h -5.436 v 26.312 h 0.216 L -6.947,13.066 -5.292,11.591 V 26.312 H 0.18 L 0.18,0 Z"
             style="fill:#ffffff;fill-opacity:1;fill-rule:nonzero;stroke:none"
             id="path3878"
             inkscape:connector-curvature="0" /></g><g
           id="g3880"
           transform="translate(144.4335,70.8555)"
           style="fill:#ffffff"><path
             d="M 0,0 5.939,-10.619 11.878,0 h 6.264 L 8.711,-15.874 V -25.917 H 3.168 v 10.043 L -6.228,0 Z"
             style="fill:#ffffff;fill-opacity:1;fill-rule:nonzero;stroke:none"
             id="path3882"
             inkscape:connector-curvature="0" /></g><g
           id="g3884"
           transform="translate(165.0614,44.9385)"
           style="fill:#ffffff"><path
             d="M 0,0 V 25.917 H 5.543 V 4.644 h 9.971 V 0 Z"
             style="fill:#ffffff;fill-opacity:1;fill-rule:nonzero;stroke:none"
             id="path3886"
             inkscape:connector-curvature="0" /></g><path
           d="m 184.572,70.855 h 5.543 V 44.938 h -5.543 z"
           style="fill:#ffffff;fill-opacity:1;fill-rule:nonzero;stroke:none"
           id="path3888"
           inkscape:connector-curvature="0" /><g
           id="g3890"
           transform="translate(208.1864,49.5098)"
           style="fill:#ffffff"><path
             d="m 0,0 c 4.68,0 7.991,3.744 7.991,8.388 0,4.607 -3.311,8.386 -7.991,8.386 -4.679,0 -7.99,-3.779 -7.99,-8.386 C -7.99,3.744 -4.679,0 0,0 m 0,21.85 c 7.812,0 13.57,-5.976 13.57,-13.462 0,-7.56 -5.722,-13.463 -13.57,-13.463 -7.847,0 -13.57,5.903 -13.57,13.463 0,7.451 5.723,13.462 13.57,13.462"
             style="fill:#ffffff;fill-opacity:1;fill-rule:nonzero;stroke:none"
             id="path3892"
             inkscape:connector-curvature="0" /></g><g
           id="g3894"
           transform="translate(231.8388,66.2119)"
           style="fill:#ffffff"><path
             d="m 0,0 v -7.739 h 3.168 c 2.412,0 4.067,1.259 4.067,3.851 C 7.235,-1.296 5.508,0 3.024,0 Z m 0,-12.418 v -8.855 H -5.543 V 4.644 H 2.88 c 5.975,0 9.971,-2.952 9.971,-8.532 0,-5.579 -3.996,-8.53 -9.971,-8.53 z"
             style="fill:#ffffff;fill-opacity:1;fill-rule:nonzero;stroke:none"
             id="path3896"
             inkscape:connector-curvature="0" /></g><path
           d="m 248.723,70.855 h 5.543 V 44.938 h -5.543 z"
           style="fill:#ffffff;fill-opacity:1;fill-rule:nonzero;stroke:none"
           id="path3898"
           inkscape:connector-curvature="0" /><g
           id="g3900"
           transform="translate(259.2353,45.9102)"
           style="fill:#ffffff"><path
             d="M 0,0 V 5.328 C 1.8,4.392 4.175,3.6 6.515,3.456 c 0.828,-0.036 1.62,0 2.303,0.144 1.98,0.288 3.132,1.044 3.132,2.303 0,1.729 -1.548,2.628 -5.111,3.924 -4.535,1.656 -7.199,3.564 -7.199,8.064 0,4.607 3.815,7.558 9.394,7.558 2.592,0 5.148,-0.576 6.768,-1.296 v -5.111 c -1.512,0.9 -3.96,1.584 -6.335,1.584 -2.664,0 -4.392,-1.044 -4.392,-2.7 0,-1.512 1.404,-2.556 4.932,-3.887 4.535,-1.765 7.343,-3.672 7.343,-8.027 0,-4.68 -3.528,-7.488 -9.647,-7.488 C 4.751,-1.476 1.871,-0.827 0,0"
             style="fill:#ffffff;fill-opacity:1;fill-rule:nonzero;stroke:none"
             id="path3902"
             inkscape:connector-curvature="0" /></g><g
           id="g3904"
           transform="translate(291.2362,66.2119)"
           style="fill:#ffffff"><path
             d="M 0,0 V -21.273 H -5.544 V 0 h -7.234 V 4.644 H 7.271 L 7.271,0 Z"
             style="fill:#ffffff;fill-opacity:1;fill-rule:nonzero;stroke:none"
             id="path3906"
             inkscape:connector-curvature="0" /></g><g
           id="g3908"
           transform="translate(314.1317,49.5098)"
           style="fill:#ffffff"><path
             d="m 0,0 c 4.68,0 7.991,3.744 7.991,8.388 0,4.607 -3.311,8.386 -7.991,8.386 -4.679,0 -7.99,-3.779 -7.99,-8.386 C -7.99,3.744 -4.679,0 0,0 m 0,21.85 c 7.812,0 13.57,-5.976 13.57,-13.462 0,-7.56 -5.722,-13.463 -13.57,-13.463 -7.847,0 -13.57,5.903 -13.57,13.463 0,7.451 5.723,13.462 13.57,13.462"
             style="fill:#ffffff;fill-opacity:1;fill-rule:nonzero;stroke:none"
             id="path3910"
             inkscape:connector-curvature="0" /></g></g></g></g></svg>